<svg xmlns="http://www.w3.org/2000/svg" width="70.66" height="70.66" viewBox="0 0 70.66 70.66">
  <g id="logo" transform="translate(-0.386 -0.089)">
    <path id="Fill_2" data-name="Fill 2" d="M14.236,18.071l3.835-3.835a.986.986,0,0,0,0-1.395L5.519.288a.986.986,0,0,0-1.394,0L.289,4.124a.986.986,0,0,0,0,1.395L12.841,18.071a.986.986,0,0,0,1.395,0" transform="translate(14.332 6.19)" fill="#a1c3e6"/>
    <path id="Fill_4" data-name="Fill 4" d="M5.519,9.355,9.355,5.52a.989.989,0,0,0,0-1.4L5.519.289a.986.986,0,0,0-1.395,0L.289,4.124a.987.987,0,0,0,0,1.4L4.124,9.355a.986.986,0,0,0,1.395,0" transform="translate(30.894 7.062)" fill="#a1c3e6"/>
    <path id="Fill_6" data-name="Fill 6" d="M32.018,5.519l-26.5,26.5a.986.986,0,0,1-1.395,0L.289,28.182a.985.985,0,0,1,0-1.394l26.5-26.5a.987.987,0,0,1,1.395,0l3.836,3.836a.987.987,0,0,1,0,1.395" transform="translate(30.894 0.089)" fill="#a1c3e6"/>
    <path id="Fill_8" data-name="Fill 8" d="M18.071,4.124,14.236.288a.989.989,0,0,0-1.4,0L.288,12.841a.986.986,0,0,0,0,1.394l3.836,3.836a.986.986,0,0,0,1.395,0L18.071,5.519a.986.986,0,0,0,0-1.395" transform="translate(6.488 38.443)" fill="#587ea6"/>
    <path id="Fill_10" data-name="Fill 10" d="M9.355,4.124,5.519.289a.986.986,0,0,0-1.395,0L.289,4.124a.986.986,0,0,0,0,1.395L4.124,9.355a.987.987,0,0,0,1.395,0L9.355,5.519a.986.986,0,0,0,0-1.395" transform="translate(7.359 30.597)" fill="#587ea6"/>
    <path id="Fill_12" data-name="Fill 12" d="M5.519.289l26.5,26.5a.987.987,0,0,1,0,1.395l-3.836,3.835a.985.985,0,0,1-1.394,0L.288,5.519a.987.987,0,0,1,0-1.395L4.124.289a.986.986,0,0,1,1.395,0" transform="translate(0.386 7.934)" fill="#587ea6"/>
    <path id="Fill_14" data-name="Fill 14" d="M4.124.289.288,4.125a.987.987,0,0,0,0,1.395L12.841,18.071a.985.985,0,0,0,1.394,0l3.835-3.835a.987.987,0,0,0,0-1.4L5.519.289a.986.986,0,0,0-1.395,0" transform="translate(38.74 46.287)" fill="#65afd3"/>
    <path id="Fill_16" data-name="Fill 16" d="M4.124.288.289,4.124a.986.986,0,0,0,0,1.395L4.124,9.354a.986.986,0,0,0,1.395,0L9.355,5.519a.987.987,0,0,0,0-1.395L5.519.288a.987.987,0,0,0-1.395,0" transform="translate(30.895 54.133)" fill="#65afd3"/>
    <path id="Fill_18" data-name="Fill 18" d="M.289,26.788l26.5-26.5a.987.987,0,0,1,1.395,0l3.836,3.836a.986.986,0,0,1,0,1.395l-26.5,26.5a.987.987,0,0,1-1.395,0L.289,28.183a.986.986,0,0,1,0-1.395" transform="translate(8.231 38.442)" fill="#65afd3"/>
    <path id="Fill_20" data-name="Fill 20" d="M.289,14.236l3.835,3.836a.987.987,0,0,0,1.395,0L18.071,5.519a.985.985,0,0,0,0-1.394L14.235.289a.986.986,0,0,0-1.395,0L.289,12.841a.986.986,0,0,0,0,1.395" transform="translate(46.585 14.035)" fill="#03608b"/>
    <path id="Fill_22" data-name="Fill 22" d="M.289,5.519,4.125,9.354a.986.986,0,0,0,1.395,0L9.355,5.519a.986.986,0,0,0,0-1.395L5.52.288a.987.987,0,0,0-1.395,0L.289,4.124a.986.986,0,0,0,0,1.395" transform="translate(54.429 30.597)" fill="#03608b"/>
    <path id="Fill_24" data-name="Fill 24" d="M26.787,32.018.288,5.52a.989.989,0,0,1,0-1.4L4.124.289a.986.986,0,0,1,1.395,0l26.5,26.5a.987.987,0,0,1,0,1.395l-3.836,3.836a.986.986,0,0,1-1.395,0" transform="translate(38.74 30.597)" fill="#03608b"/>
  </g>
</svg>
