<svg xmlns="http://www.w3.org/2000/svg" viewBox="0 0 92.013 78">
  <path id="XMLID_1022_" d="M73,76.5v5c0,2.2-1.9,3.5-4.1,3.5H3.6C1.4,85,0,83.8,0,81.5V32.1c0-2.2,1.4-4.2,3.6-4.2H15.3a4,4,0,0,1,0,8H8V77H65v-.5a4,4,0,0,1,8,0ZM90.8,39.2,66,64.5a4.028,4.028,0,0,1-4.4.9A4.1,4.1,0,0,1,59,61.6V50.7c-8-.2-27.2.6-34.2,12.9a4.041,4.041,0,0,1-3.5,2.1,3.4,3.4,0,0,1-1-.1,4.052,4.052,0,0,1-3-3.9c0-.6,0-16.1,11.6-27.6C36.2,26.6,46,22.6,59,21.9V11a4.025,4.025,0,0,1,2.5-3.7,4.154,4.154,0,0,1,4.5.9L90.9,33.5A4.076,4.076,0,0,1,90.8,39.2Zm-8.6-2.9L67,20.9v4.9a3.949,3.949,0,0,1-4,4c-12.4,0-21.9,3.3-28.4,9.9a28.574,28.574,0,0,0-6.3,9.5c9.4-5.6,21.3-6.6,28.6-6.6,3.8,0,6.3.3,6.6.3a4,4,0,0,1,3.5,4v4.9Z" transform="translate(0 -7)" fill="#fff"/>
</svg>
